# xmcd CD database file
#
# Track frame offsets:
#	150
#	15586
#	28292
#	42781
#	56809
#	70857
#	88027
#	102996
#
# Disc length: 1583 seconds
#
# Revision: 1
# Processed by: cddbd v1.5.1PL0 Copyright (c) Steve Scherf et al.
# Submitted via: CDex 1.51
#
DISCID=66062d08
DTITLE=Melissa Paige - Melissa Paige
DYEAR=2004
DGENRE=Country
TTITLE0=Halfway home
TTITLE1=Stand by your man
TTITLE2=I'm alright
TTITLE3=Before we're gone for good
TTITLE4=The way you love me
TTITLE5=When a man loves a woman
TTITLE6=That summer
TTITLE7=A broken wing
EXTD=YEAR: 2004
EXTT0=
EXTT1=
EXTT2=
EXTT3=
EXTT4=
EXTT5=
EXTT6=
EXTT7=
PLAYORDER=
